<svg xmlns="http://www.w3.org/2000/svg" viewBox="0 0 172 172"><title>logo</title><g id="Layer_2" data-name="Layer 2"><g id="nav_and_footer" data-name="nav and footer"><circle cx="86" cy="86" r="86" style="fill:#dfa700"/></g><g id="Layer_3" data-name="Layer 3"><path d="M90.12,79.22a55.91,55.91,0,0,0,2.63,22.24,53.53,53.53,0,0,0,11.88,19.64,61.57,61.57,0,0,0,19.49,13.75,70.46,70.46,0,0,0,23.87,6,72.14,72.14,0,0,1-25.09-2.63,67,67,0,0,1-23.05-11.83A62.35,62.35,0,0,1,83,105.64a68.22,68.22,0,0,1-7-26.42Z" style="fill:#543f00"/><path d="M39,137.1,43.24,26.76l.13-3.3,2.87-.75c.64-.16,1.12-.26,1.67-.38L49.49,22c1-.2,2.1-.37,3.15-.52q3.13-.45,6.3-.68a78.71,78.71,0,0,1,12.66.08,59.34,59.34,0,0,1,12.49,2.43,43.76,43.76,0,0,1,11.52,5.5,37.49,37.49,0,0,1,9.14,8.8,41.61,41.61,0,0,1,5.76,11,56.68,56.68,0,0,1,2.73,12,82.26,82.26,0,0,1,.57,12.14,81.23,81.23,0,0,0-1.61-12,54.68,54.68,0,0,0-3.65-11.35,39.16,39.16,0,0,0-6.27-9.86,33.79,33.79,0,0,0-8.9-7.19C86.71,28.67,79,27.25,71.29,27.23a71.8,71.8,0,0,0-11.52.94c-1.9.3-3.8.68-5.67,1.11-.94.22-1.87.46-2.78.72L50,30.39c-.43.13-.92.29-1.25.41l3-4L55.93,137.1Z" style="fill:#543f00"/></g></g></svg>